<svg preserveAspectRatio="xMidYMid meet" data-bbox="20.001 33.5 160 133" viewBox="20.001 33.5 160 133" height="200" width="200" xmlns="http://www.w3.org/2000/svg" data-type="color" role="img" aria-label="Trang Đài makeup">
    <g>
        <path d="M177.959 63.919c-5.286-13.379-21.015-21.221-34.564-15.734-7.345 2.975-13.102 9.062-15.383 16.72-.101.339-.13.656-.111.951-.057.106-.115.21-.171.316-5.537-4-11.944-6.502-18.843-7.521-8.724-1.289-17.786-1.884-26.496-.239C78.678 42.9 64.154 31.694 47.87 33.742c-18.079 2.274-30.615 19.502-27.352 37.571 1.667 9.232 7.501 19.32 15.525 24.553-4.564 6.889-6.928 14.956-6.978 23.06-.015 2.46.179 4.923.594 7.357a41.205 41.205 0 0 0 3.148 10.227c2.863 6.253 7.349 11.71 12.796 15.854a38.329 38.329 0 0 0 4.357 2.854 45.967 45.967 0 0 0 5.716 2.716c3.529 1.395 7.22 2.408 10.938 3.196 8.196 1.737 16.547 2.88 24.864 3.844 8.611.998 17.495 2.116 26.156 1.165a53.31 53.31 0 0 0 13.527-3.331 53.939 53.939 0 0 0 5.436-2.475c6.218-3.253 11.807-7.715 16.281-13.182a52.332 52.332 0 0 0 6.943-11.084 53.635 53.635 0 0 0 2.392-6.1 54.924 54.924 0 0 0 1.985-25.488c-.195-.177-.312-.457-.313-.807 0-.156.037-.3.098-.43-.023-.127-.042-.254-.066-.381 12.624-8.239 19.865-24.206 14.042-38.942z" fill="#FFFFFF" data-color="1"></path>
        <path d="M115.026 106.231c.003-.503.15-.955.388-1.344-1.72.018-3.36.376-3.671 1.884a1.74 1.74 0 0 0-.028.434c-.456.749-.098 2.048 1.071 2.125.758.05 1.535.105 2.318.159-.164-1.076-.085-2.264-.078-3.258z" fill="#FAF1CD" data-color="2"></path>
        <path d="M125.196 105.277a120.698 120.698 0 0 0-3.612-.146c.608.818.846 1.863.707 2.903a6.678 6.678 0 0 1-.471 1.706c1.498-.023 2.978-.116 4.399-.344 1.513-.243 3.437-1.571 1.993-3.259-.741-.867-1.988-.8-3.016-.86z" fill="#FAF1CD" data-color="2"></path>
        <path d="M63.931 102.078c.067-.266.176-.522.306-.768.076-.223.164-.439.259-.651a20.32 20.32 0 0 0-3.002.349c-2.484.497-2.595 2.686-1.358 3.496.206.321.536.57.997.628a74.28 74.28 0 0 0 2.995.308 5.676 5.676 0 0 1-.284-1.676 4.34 4.34 0 0 1 .087-1.686z" fill="#FAF1CD" data-color="2"></path>
        <path d="M70.609 100.911c-.11-.012-.224-.022-.335-.033.697.998.969 2.343.625 3.621a7.14 7.14 0 0 1-.435 1.197 73.327 73.327 0 0 0 5.355-.216c1.196-.093 1.655-1.352.929-2.257-1.495-1.867-3.906-2.071-6.139-2.312z" fill="#FAF1CD" data-color="2"></path>
        <path d="M62.856 92.477c-.246.353-.246.791-.083 1.173.056.611.472 1.185 1.258 1.19.112.001.224-.003.337-.003.361.056.747.039 1.119-.017 1.15-.035 2.297-.12 3.441-.269 1.135-.148 2.874-.122 3.668-1.112.619-.771.445-1.847-.346-2.428-1.012-.744-2.648-.55-3.813-.46-1.277.099-4.916.346-5.581 1.926z" fill="#060606" data-color="3"></path>
        <path d="M116.405 99.107a14.45 14.45 0 0 0 3.438.516c1.292.034 3.266.101 4.244-.915 2.57-2.668-2.925-4.414-4.619-4.642-1.676-.225-7.405-.219-6.295 2.932.44 1.251 1.731 1.862 3.232 2.109z" fill="#060606" data-color="3"></path>
        <path d="M90.984 109.402a1.353 1.353 0 0 0-.891-.165c-13.237 1.977-18.728 25.397-3.699 29.002 6.21 1.49 14.514-1.183 18.615-6.134 4.106-4.957 4.043-12.305.08-17.323-3.505-4.436-8.887-6.154-14.105-5.38zm5.042 12.735c-.648.79-1.53.729-2.252 1.278-1.164.886-.712 4.389-.756 5.735-.056 1.7-2.685 1.702-2.628 0 .052-1.582-.303-4.057.219-5.874-.037-.026-.075-.045-.111-.075-1.743-1.453-3.609-3.89-1.986-6.176 1.36-1.916 4.183-1.382 5.946-.396 1.908 1.067 3.138 3.592 1.568 5.508z" fill="#7E4C23" data-color="4"></path>
        <path d="M121.584 105.131c-.855-.023-1.71-.043-2.564-.053-.843-.01-2.25-.206-3.607-.192a2.602 2.602 0 0 0-.388 1.344c-.007.995-.086 2.183.078 3.257 2.204.153 4.48.286 6.716.252a6.656 6.656 0 0 0 .471-1.706c.14-1.038-.098-2.084-.706-2.902z" fill="#A0C1BE" data-color="5"></path>
        <path d="M70.275 100.878c-1.864-.192-3.844-.313-5.779-.219a7.874 7.874 0 0 0-.259.651c-.13.246-.239.502-.306.768a4.354 4.354 0 0 0-.087 1.685c.012.573.104 1.139.284 1.676 2.111.177 4.222.265 6.337.257a7.14 7.14 0 0 0 .435-1.197 4.396 4.396 0 0 0-.625-3.621z" fill="#A0C1BE" data-color="5"></path>
        <path d="M62.17 124.932c-7.153-10.608-23.503-14.119-33.105-6.006-.015 2.46.179 4.923.594 7.357a41.205 41.205 0 0 0 3.148 10.227c2.863 6.253 7.349 11.71 12.796 15.854a38.329 38.329 0 0 0 4.357 2.854 45.967 45.967 0 0 0 5.716 2.716c10.217-7.209 14.042-21.807 6.494-33.002z" fill="#DD553C" data-color="6"></path>
        <path d="M147.931 122.548c-7.603-.944-15.142 2.072-20.048 7.997-8.408 10.155-6.143 24.493 3.276 32.262a53.939 53.939 0 0 0 5.436-2.475c6.218-3.253 11.807-7.715 16.281-13.182a52.332 52.332 0 0 0 6.943-11.084 53.635 53.635 0 0 0 2.392-6.1c-3.457-4.201-8.889-6.749-14.28-7.418z" fill="#DD553C" data-color="6"></path>
        <path d="M94.458 116.629c-1.763-.986-4.586-1.52-5.946.396-1.623 2.286.243 4.723 1.986 6.176.036.03.074.05.111.075-.522 1.817-.167 4.292-.219 5.874-.056 1.702 2.572 1.7 2.628 0 .044-1.346-.407-4.849.756-5.735.722-.55 1.605-.488 2.252-1.278 1.57-1.916.34-4.441-1.568-5.508z" fill="#060606" data-color="3"></path>
        <path d="M66.639 63.852c.29-.509.305-1.148-.175-1.795-5.391-7.257-14.732-14.43-23.982-9.184-3.982 2.258-6.031 6.726-6.01 11.223.025 5.345 2.856 9.994 6.211 13.926.217.255.455.423.698.527.529.736 1.466 1.115 2.437.448L65.77 65.304c.558-.384.818-.913.869-1.452z" fill="#7E4C23" data-color="4"></path>
        <path d="M177.959 63.919c-5.286-13.379-21.015-21.221-34.564-15.734-7.345 2.975-13.102 9.063-15.383 16.72-.101.34-.13.656-.111.951-.057.106-.115.21-.171.316-5.537-4-11.944-6.502-18.842-7.521-8.724-1.289-17.786-1.884-26.496-.239C78.678 42.9 64.154 31.694 47.87 33.742c-18.079 2.274-30.615 19.502-27.352 37.571 1.667 9.231 7.501 19.32 15.525 24.553-4.564 6.889-6.928 14.956-6.978 23.06 9.603-8.113 25.953-4.602 33.105 6.006 7.549 11.195 3.723 25.794-6.494 33.002 3.529 1.395 7.22 2.408 10.938 3.196 8.196 1.737 16.547 2.88 24.864 3.844 8.611.998 17.495 2.116 26.156 1.165a53.269 53.269 0 0 0 13.527-3.332c-9.419-7.769-11.684-22.108-3.276-32.262 4.906-5.925 12.444-8.941 20.048-7.997 5.391.669 10.823 3.217 14.279 7.419a54.924 54.924 0 0 0 1.985-25.488c-.195-.178-.313-.457-.313-.807 0-.156.037-.3.098-.43-.023-.127-.042-.254-.066-.381 12.625-8.239 19.866-24.206 14.043-38.942zm-144.27 39.236c-.304.06-.54-.139-.567-.436-.018-.201.081-.356.296-.38.304-.033.53.151.583.551-.073.066-.179.239-.312.265zm31.508 51.895c-.256-.013-.412-.153-.449-.405-.04-.277.177-.519.466-.537a.486.486 0 0 1 .519.483c.001.28-.225.475-.536.459zm37.858-47.233c.323.022.597.355.531.645-.058.253-.331.417-.628.375-.288-.041-.504-.295-.469-.552a.562.562 0 0 1 .566-.468zM72.251 91.01c.79.581.965 1.656.346 2.428-.794.99-2.533.964-3.668 1.112a34.841 34.841 0 0 1-3.441.269 3.754 3.754 0 0 1-1.119.017c-.112 0-.224.004-.337.003-.786-.006-1.202-.579-1.258-1.19-.164-.382-.164-.82.083-1.173.665-1.58 4.304-1.826 5.582-1.926 1.163-.09 2.8-.283 3.812.46zm-28.87-12.462a1.883 1.883 0 0 1-.698-.527c-3.355-3.932-6.186-8.581-6.211-13.926-.021-4.496 2.028-8.964 6.01-11.223 9.25-5.245 18.591 1.927 23.982 9.184.481.647.466 1.286.175 1.795a1.943 1.943 0 0 1-.87 1.452L45.817 78.996c-.971.667-1.908.288-2.436-.448zm23.764 82.472c-.228.083-.516-.224-.443-.493.034-.127.255-.319.336-.295.172.052.308.226.523.403-.183.175-.28.336-.416.385zm.207-29.04c-.196.015-.344-.071-.39-.278-.054-.246.079-.473.395-.542.072.078.226.176.274.311.088.248-.063.492-.279.509zm5.392-.485c-.357-.012-.575-.208-.515-.483.051-.236.17-.432.445-.437.28-.005.51.237.521.525.008.229-.191.403-.451.395zm3.076-26.015a72.522 72.522 0 0 1-11.692-.041 74.28 74.28 0 0 1-2.995-.308 1.356 1.356 0 0 1-.997-.628c-1.237-.81-1.126-2.999 1.358-3.496.97-.194 1.98-.299 3.002-.349 1.935-.094 3.915.027 5.779.219.111.011.224.021.335.033 2.232.241 4.644.444 6.14 2.311.725.907.265 2.166-.93 2.259zm3.099 39.031c-.311.086-.632-.183-.613-.502.009-.147.139-.287.19-.384.399-.046.725.207.702.519-.01.133-.157.333-.279.367zm10.974-4.008c-.415.043-.748-.202-.777-.573-.034-.447.278-.817.704-.833.366-.014.678.283.712.677.033.389-.227.686-.639.729zm8.812 13.349-.221-.2c.08-.085.155-.177.248-.246.012-.009.172.123.161.154-.037.104-.119.192-.188.292zm6.304-21.746c-4.101 4.951-12.405 7.623-18.615 6.134-15.03-3.606-9.538-27.025 3.699-29.002.343-.051.642.022.891.165 5.218-.774 10.6.943 14.105 5.381 3.963 5.017 4.026 12.365-.08 17.322zm5.28 14.086c-.365.101-.722.07-1.066-.088-.402-.185-.906-.243-1.024-.878.119-.182.24-.429.416-.627.638-.717 1.462-.719 2.136-.026a.66.66 0 0 1 .082.107c.27.426-.073 1.381-.544 1.512zm16.936 13.867c.401-.007.711.287.685.649-.025.345-.355.631-.734.636-.311.004-.571-.258-.592-.598-.026-.401.235-.68.641-.687zm-7.757-65.992c1.693.228 7.189 1.974 4.619 4.642-.979 1.016-2.952.949-4.244.915a14.457 14.457 0 0 1-3.438-.516c-1.5-.246-2.792-.857-3.232-2.108-1.11-3.152 4.618-3.159 6.295-2.933zm-1.289 10.485-.103.046-.089-.189c.034-.016.097-.048.099-.044.035.06.063.124.093.187zm-3.287 36.24a.51.51 0 0 1-.549-.471c-.014-.22.171-.407.431-.42.239-.012.452.045.532.307.079.26-.133.551-.414.584zm1.211-17.797c-.253.06-.447-.217-.429-.542.013-.246.208-.436.422-.414.277.029.482.277.448.668-.106.073-.258.244-.441.288zm10.117-13.599c-1.421.229-2.901.322-4.399.344-2.237.034-4.512-.1-6.716-.252-.783-.054-1.56-.109-2.318-.159-1.169-.077-1.527-1.375-1.071-2.125a1.743 1.743 0 0 1 .028-.434c.311-1.508 1.951-1.865 3.671-1.884 1.357-.014 2.764.182 3.607.192.854.01 1.709.03 2.564.053 1.205.033 2.41.077 3.612.146 1.028.059 2.275-.007 3.017.86 1.441 1.688-.482 3.016-1.995 3.259zm13.481 11.633c-.061.237-.201.414-.472.41-.266-.004-.465-.298-.414-.595.049-.29.33-.533.561-.487.235.047.403.374.325.672zm2.941-4.751c-.077-.056-.227-.111-.283-.216-.236-.445.08-1.093.563-1.193a.531.531 0 0 1 .609.419c.104.542-.297 1.013-.889.99zm14.793-24.185c-.554.585-1.182.677-1.73.474-.537.039-1.099-.13-1.568-.621l-16.753-17.503c-.815-.852-.601-1.845.032-2.492.061-.259.186-.522.4-.781 3.292-3.986 7.374-7.571 12.608-8.489 4.403-.772 9.123.513 12.002 4.086 6.687 8.3 1.22 18.765-4.991 25.326z" fill="#7E4C23" data-color="4"></path>
        <path d="M150.425 62.682c-5.234.918-9.316 4.503-12.608 8.489a1.91 1.91 0 0 0-.4.781c-.633.647-.848 1.64-.032 2.492l16.753 17.503c.469.49 1.031.66 1.568.621.547.203 1.176.111 1.73-.474 6.21-6.561 11.677-17.026 4.991-25.325-2.879-3.574-7.6-4.86-12.002-4.087zm-8.536 15.933c-.19-.258-.359-.399-.404-.573-.047-.184.114-.318.314-.337.236-.022.449.173.398.398-.033.145-.157.269-.308.512zm4.95-12.514a.905.905 0 0 1-.861-1.006c.037-.35.366-.606.777-.602.488.004.776.357.748.917-.021.431-.295.716-.664.691zm10.437 13.086-.262-.338c.1-.061.195-.146.303-.17.048-.011.185.121.175.156-.032.106-.115.197-.216.352z" fill="#7E4C23" data-color="4"></path>
        <path d="M90.984 109.402a1.353 1.353 0 0 0-.891-.165c-13.237 1.977-18.728 25.397-3.699 29.002 6.21 1.49 14.514-1.183 18.615-6.134 4.106-4.957 4.043-12.305.08-17.323-3.505-4.436-8.887-6.154-14.105-5.38zm5.042 12.735c-.648.79-1.53.729-2.252 1.278-1.164.886-.712 4.389-.756 5.735-.056 1.7-2.685 1.702-2.628 0 .052-1.582-.303-4.057.219-5.874-.037-.026-.075-.045-.111-.075-1.743-1.453-3.609-3.89-1.986-6.176 1.36-1.916 4.183-1.382 5.946-.396 1.908 1.067 3.138 3.592 1.568 5.508z" fill="#060606" opacity=".3" data-color="3"></path>
        <path d="M66.639 63.852c.29-.509.305-1.148-.175-1.795-5.391-7.257-14.732-14.43-23.982-9.184-3.982 2.258-6.031 6.726-6.01 11.223.025 5.345 2.856 9.994 6.211 13.926.217.255.455.423.698.527.529.736 1.466 1.115 2.437.448L65.77 65.304c.558-.384.818-.913.869-1.452z" fill="#060606" opacity=".3" data-color="3"></path>
        <path d="M150.425 62.682c-5.234.918-9.316 4.503-12.608 8.489a1.91 1.91 0 0 0-.4.781c-.633.647-.848 1.64-.032 2.492l16.753 17.503c.469.49 1.031.66 1.568.621.547.203 1.176.111 1.73-.474 6.21-6.561 11.677-17.026 4.991-25.325-2.879-3.574-7.6-4.86-12.002-4.087zm-8.536 15.933c-.19-.258-.359-.399-.404-.573-.047-.184.114-.318.314-.337.236-.022.449.173.398.398-.033.145-.157.269-.308.512zm4.95-12.514a.905.905 0 0 1-.861-1.006c.037-.35.366-.606.777-.602.488.004.776.357.748.917-.021.431-.295.716-.664.691zm10.437 13.086-.262-.338c.1-.061.195-.146.303-.17.048-.011.185.121.175.156-.032.106-.115.197-.216.352z" fill="#060606" opacity=".3" data-color="3"></path>
    </g>
</svg>