<svg xmlns="http://www.w3.org/2000/svg" xmlns:xlink="http://www.w3.org/1999/xlink" width="500" zoomAndPan="magnify" viewBox="0 0 375 374.999991" height="500" preserveAspectRatio="xMidYMid meet" version="1.0"><defs><g/></defs><g fill="#000000" fill-opacity="1"><g transform="translate(143.085156, 267.133319)"><g><path d="M -15.875 -87.96875 C -12.8125 -96.96875 -7.675781 -103.160156 -0.46875 -106.546875 C 6.726562 -109.941406 19.484375 -111.640625 37.796875 -111.640625 C 41.609375 -111.640625 51.238281 -111.476562 66.6875 -111.15625 C 77.914062 -110.84375 87.816406 -108.410156 96.390625 -103.859375 C 104.960938 -99.304688 111.65625 -92.875 116.46875 -84.5625 C 121.289062 -76.25 123.703125 -66.585938 123.703125 -55.578125 C 123.703125 -38.953125 118.4375 -25.53125 107.90625 -15.3125 C 97.375 -5.101562 83.632812 0 66.6875 0 L 12.859375 0 L 13.015625 -1.59375 L 14.921875 -1.59375 C 17.566406 -1.59375 19.84375 -2.460938 21.75 -4.203125 C 23.65625 -5.953125 24.769531 -8.097656 25.09375 -10.640625 L 25.09375 -106.390625 C 11.851562 -106.078125 2.484375 -104.015625 -3.015625 -100.203125 C -5.867188 -98.191406 -8.035156 -96.257812 -9.515625 -94.40625 C -11.003906 -92.550781 -12.546875 -90.195312 -14.140625 -87.34375 Z M 35.40625 -106.390625 L 35.40625 -4.765625 L 66.6875 -4.765625 C 80.132812 -4.765625 91.015625 -9.421875 99.328125 -18.734375 C 107.640625 -28.054688 111.796875 -40.335938 111.796875 -55.578125 C 111.796875 -65.640625 109.914062 -74.503906 106.15625 -82.171875 C 102.394531 -89.847656 97.097656 -95.800781 90.265625 -100.03125 C 83.441406 -104.269531 75.582031 -106.390625 66.6875 -106.390625 Z M 35.40625 -106.390625 "/></g></g></g><g fill="#000000" fill-opacity="1"><g transform="translate(104.593153, 235.88332)"><g><path d="M -9.21875 -79.5625 C -12.5 -83.476562 -14.140625 -87.367188 -14.140625 -91.234375 C -14.140625 -95.097656 -13.238281 -98.429688 -11.4375 -101.234375 C -9.632812 -104.035156 -6.722656 -106.414062 -2.703125 -108.375 C 1.316406 -110.332031 5.867188 -111.3125 10.953125 -111.3125 L 76.0625 -111.3125 C 79.34375 -111.3125 82.96875 -111.628906 86.9375 -112.265625 C 90.90625 -112.898438 93.6875 -113.535156 95.28125 -114.171875 L 95.28125 -94.171875 L 93.6875 -94.328125 L 93.6875 -97.03125 C 93.6875 -99.570312 92.785156 -101.765625 90.984375 -103.609375 C 89.179688 -105.460938 87.066406 -106.441406 84.640625 -106.546875 L 54.46875 -106.546875 L 54.46875 -11.4375 C 54.570312 -7.625 56.265625 -4.765625 59.546875 -2.859375 C 61.128906 -2.015625 62.820312 -1.59375 64.625 -1.59375 L 66.6875 -1.59375 L 66.6875 0 L 31.921875 0 L 31.921875 -1.59375 L 33.984375 -1.59375 C 36.734375 -1.59375 39.085938 -2.539062 41.046875 -4.4375 C 43.003906 -6.34375 44.035156 -8.625 44.140625 -11.28125 L 44.140625 -106.546875 L 10.953125 -106.546875 C 2.484375 -106.546875 -3.65625 -103.847656 -7.46875 -98.453125 C -9.476562 -95.703125 -10.484375 -92.816406 -10.484375 -89.796875 C -10.484375 -86.785156 -9.632812 -83.632812 -7.9375 -80.34375 Z M -9.21875 -79.5625 "/></g></g></g><path fill="#deccd0" d="M 71.957031 193.023438 L 289.101562 193.023438 C 290.214844 193.023438 291.277344 193.464844 292.066406 194.253906 C 292.851562 195.039062 293.292969 196.101562 293.292969 197.214844 L 293.292969 205.59375 C 293.292969 206.703125 292.851562 207.769531 292.066406 208.554688 C 291.277344 209.339844 290.214844 209.78125 289.101562 209.78125 L 71.957031 209.78125 C 69.640625 209.78125 67.765625 207.90625 67.765625 205.59375 L 67.765625 197.214844 C 67.765625 194.902344 69.640625 193.023438 71.957031 193.023438 Z M 71.957031 193.023438 " fill-opacity="1" fill-rule="nonzero"/><g fill="#000000" fill-opacity="1"><g transform="translate(75.58445, 205.528523)"><g><path d="M 0.546875 0 L 0.546875 -0.421875 L 1.28125 -0.578125 L 1.28125 -5.921875 L 0.640625 -6.046875 L 0.640625 -6.484375 L 2.6875 -6.484375 L 4.234375 -1.90625 L 4.390625 -1.34375 L 4.53125 -1.90625 L 6.046875 -6.484375 L 8.265625 -6.484375 L 8.265625 -6.046875 L 7.4375 -5.90625 L 7.4375 -0.59375 L 8.265625 -0.4375 L 8.265625 0 L 5.75 0 L 5.75 -0.4375 L 6.578125 -0.59375 L 6.578125 -5.8125 L 6.421875 -5.8125 L 6.34375 -5.578125 L 4.453125 0 L 3.96875 0 L 2.015625 -5.8125 L 1.890625 -5.8125 L 1.890625 -0.578125 L 2.625 -0.421875 L 2.625 0 Z M 0.546875 0 "/></g></g></g><g fill="#000000" fill-opacity="1"><g transform="translate(92.063941, 205.528523)"><g><path d="M -0.09375 -0.40625 L 0.546875 -0.578125 L 2.75 -6.546875 L 3.234375 -6.546875 L 5.53125 -0.578125 L 6.1875 -0.40625 L 6.1875 0 L 3.78125 0 L 3.78125 -0.40625 L 4.5 -0.578125 L 4.5 -0.75 L 4.0625 -1.859375 L 1.65625 -1.859375 L 1.265625 -0.75 L 1.265625 -0.578125 L 2.015625 -0.40625 L 2.015625 0 L -0.09375 0 Z M 3.859375 -2.4375 L 2.890625 -5.015625 L 2.84375 -5.125 L 2.828125 -5.171875 L 2.765625 -4.984375 L 1.859375 -2.4375 Z M 3.859375 -2.4375 "/></g></g></g><g fill="#000000" fill-opacity="1"><g transform="translate(105.77125, 205.528523)"><g><path d="M 1.375 -0.59375 L 1.375 -5.90625 L 0.546875 -6.046875 L 0.546875 -6.484375 L 3.078125 -6.484375 L 3.078125 -6.046875 L 2.25 -5.90625 L 2.25 -3.59375 L 2.546875 -3.59375 L 4.390625 -5.828125 L 4.390625 -5.9375 L 3.8125 -6.0625 L 3.8125 -6.484375 L 5.859375 -6.484375 L 5.859375 -6.046875 L 5.28125 -5.921875 L 3.328125 -3.578125 L 5.421875 -0.59375 L 6.0625 -0.453125 L 6.0625 0 L 5.125 0 C 4.957031 0 4.832031 -0.015625 4.75 -0.046875 C 4.664062 -0.0859375 4.582031 -0.171875 4.5 -0.296875 L 2.578125 -3.125 L 2.25 -3.125 L 2.25 -0.59375 L 3.078125 -0.4375 L 3.078125 0 L 0.546875 0 L 0.546875 -0.4375 Z M 1.375 -0.59375 "/></g></g></g><g fill="#000000" fill-opacity="1"><g transform="translate(119.398495, 205.528523)"><g><path d="M 1.375 -0.59375 L 1.375 -5.890625 L 0.546875 -6.0625 L 0.546875 -6.484375 L 5.140625 -6.484375 L 5.140625 -4.84375 L 4.640625 -4.84375 L 4.4375 -5.9375 L 3.21875 -5.9375 L 2.25 -5.875 L 2.25 -3.578125 L 3.828125 -3.578125 L 3.96875 -4.171875 L 4.390625 -4.171875 L 4.390625 -2.46875 L 3.96875 -2.46875 L 3.828125 -3.0625 L 2.25 -3.0625 L 2.25 -0.671875 C 2.375 -0.640625 2.535156 -0.613281 2.734375 -0.59375 C 2.929688 -0.582031 3.125 -0.578125 3.3125 -0.578125 L 4.515625 -0.578125 L 4.734375 -1.640625 L 5.234375 -1.640625 L 5.234375 0 L 0.546875 0 L 0.546875 -0.4375 Z M 1.375 -0.59375 "/></g></g></g><g fill="#000000" fill-opacity="1"><g transform="translate(132.745521, 205.528523)"><g><path d="M 0.453125 -6.046875 L 0.453125 -6.484375 L 2.96875 -6.484375 L 2.96875 -6.046875 L 2.140625 -5.90625 L 2.140625 -2.78125 C 2.140625 -2.175781 2.1875 -1.710938 2.28125 -1.390625 C 2.382812 -1.078125 2.5625 -0.851562 2.8125 -0.71875 C 3.0625 -0.59375 3.425781 -0.53125 3.90625 -0.53125 C 4.507812 -0.53125 4.925781 -0.710938 5.15625 -1.078125 C 5.394531 -1.441406 5.515625 -2.007812 5.515625 -2.78125 L 5.515625 -5.875 L 4.6875 -6.046875 L 4.6875 -6.484375 L 6.984375 -6.484375 L 6.984375 -6.046875 L 6.15625 -5.875 L 6.15625 -2.78125 C 6.15625 -2.101562 6.082031 -1.554688 5.9375 -1.140625 C 5.800781 -0.722656 5.546875 -0.40625 5.171875 -0.1875 C 4.804688 0.0195312 4.28125 0.125 3.59375 0.125 C 2.976562 0.125 2.5 0.0195312 2.15625 -0.1875 C 1.820312 -0.40625 1.585938 -0.71875 1.453125 -1.125 C 1.328125 -1.539062 1.265625 -2.09375 1.265625 -2.78125 L 1.265625 -5.90625 Z M 0.453125 -6.046875 "/></g></g></g><g fill="#000000" fill-opacity="1"><g transform="translate(147.693805, 205.528523)"><g><path d="M 0.546875 -0.4375 L 1.375 -0.59375 L 1.375 -5.890625 L 0.546875 -6.0625 L 0.546875 -6.484375 L 3.046875 -6.484375 C 4.671875 -6.484375 5.484375 -5.9375 5.484375 -4.84375 C 5.484375 -4.113281 5.269531 -3.554688 4.84375 -3.171875 C 4.414062 -2.796875 3.832031 -2.609375 3.09375 -2.609375 C 2.9375 -2.609375 2.816406 -2.613281 2.734375 -2.625 L 2.6875 -3.015625 C 3.289062 -3.015625 3.753906 -3.128906 4.078125 -3.359375 C 4.398438 -3.597656 4.5625 -3.992188 4.5625 -4.546875 C 4.5625 -5.460938 4.050781 -5.921875 3.03125 -5.921875 C 2.863281 -5.921875 2.703125 -5.910156 2.546875 -5.890625 C 2.390625 -5.878906 2.289062 -5.875 2.25 -5.875 L 2.25 -0.625 L 3.359375 -0.453125 L 3.359375 0 L 0.546875 0 Z M 0.546875 -0.4375 "/></g></g></g><g fill="#000000" fill-opacity="1"><g transform="translate(160.970782, 205.528523)"><g/></g></g><g fill="#000000" fill-opacity="1"><g transform="translate(170.604898, 205.528523)"><g><path d="M 4.5625 -0.546875 C 4.082031 -0.117188 3.472656 0.09375 2.734375 0.09375 C 2.078125 0.09375 1.53125 -0.0390625 1.09375 -0.3125 C 0.65625 -0.582031 0.4375 -1.039062 0.4375 -1.6875 C 0.4375 -2.15625 0.566406 -2.53125 0.828125 -2.8125 C 1.097656 -3.101562 1.390625 -3.320312 1.703125 -3.46875 C 1.429688 -3.757812 1.234375 -4.023438 1.109375 -4.265625 C 0.984375 -4.503906 0.921875 -4.753906 0.921875 -5.015625 C 0.921875 -5.472656 1.082031 -5.851562 1.40625 -6.15625 C 1.726562 -6.457031 2.175781 -6.609375 2.75 -6.609375 C 3.039062 -6.609375 3.316406 -6.578125 3.578125 -6.515625 C 3.847656 -6.460938 4.0625 -6.398438 4.21875 -6.328125 L 4.21875 -4.84375 L 3.71875 -4.84375 L 3.53125 -5.875 C 3.507812 -5.875 3.46875 -5.882812 3.40625 -5.90625 C 3.34375 -5.9375 3.242188 -5.960938 3.109375 -5.984375 C 2.984375 -6.015625 2.835938 -6.03125 2.671875 -6.03125 C 2.316406 -6.03125 2.0625 -5.953125 1.90625 -5.796875 C 1.757812 -5.648438 1.6875 -5.425781 1.6875 -5.125 C 1.6875 -4.90625 1.734375 -4.722656 1.828125 -4.578125 C 1.921875 -4.441406 2.132812 -4.203125 2.46875 -3.859375 L 4.640625 -1.609375 C 4.734375 -1.828125 4.78125 -2.082031 4.78125 -2.375 C 4.78125 -2.582031 4.769531 -2.757812 4.75 -2.90625 C 4.726562 -3.050781 4.703125 -3.15625 4.671875 -3.21875 L 3.84375 -3.390625 L 3.84375 -3.84375 L 5.203125 -3.84375 C 5.335938 -3.46875 5.40625 -2.984375 5.40625 -2.390625 C 5.40625 -1.953125 5.289062 -1.539062 5.0625 -1.15625 L 5.625 -0.59375 L 6.390625 -0.4375 L 6.390625 0 L 5.53125 0 C 5.257812 0 5.019531 -0.0976562 4.8125 -0.296875 Z M 2.015625 -3.171875 C 1.835938 -3.054688 1.675781 -2.890625 1.53125 -2.671875 C 1.394531 -2.453125 1.328125 -2.171875 1.328125 -1.828125 C 1.328125 -1.378906 1.4375 -1.046875 1.65625 -0.828125 C 1.882812 -0.617188 2.285156 -0.515625 2.859375 -0.515625 C 3.398438 -0.515625 3.835938 -0.660156 4.171875 -0.953125 Z M 2.015625 -3.171875 "/></g></g></g><g fill="#000000" fill-opacity="1"><g transform="translate(184.342236, 205.528523)"><g/></g></g><g fill="#000000" fill-opacity="1"><g transform="translate(193.976353, 205.528523)"><g><path d="M -0.09375 -0.40625 L 0.546875 -0.578125 L 2.75 -6.546875 L 3.234375 -6.546875 L 5.53125 -0.578125 L 6.1875 -0.40625 L 6.1875 0 L 3.78125 0 L 3.78125 -0.40625 L 4.5 -0.578125 L 4.5 -0.75 L 4.0625 -1.859375 L 1.65625 -1.859375 L 1.265625 -0.75 L 1.265625 -0.578125 L 2.015625 -0.40625 L 2.015625 0 L -0.09375 0 Z M 3.859375 -2.4375 L 2.890625 -5.015625 L 2.84375 -5.125 L 2.828125 -5.171875 L 2.765625 -4.984375 L 1.859375 -2.4375 Z M 3.859375 -2.4375 "/></g></g></g><g fill="#000000" fill-opacity="1"><g transform="translate(207.683662, 205.528523)"><g><path d="M 5.578125 -1.84375 L 5.578125 -0.328125 C 5.273438 -0.191406 4.96875 -0.0820312 4.65625 0 C 4.351562 0.0703125 3.9375 0.109375 3.40625 0.109375 C 1.4375 0.109375 0.453125 -0.984375 0.453125 -3.171875 C 0.453125 -3.785156 0.578125 -4.351562 0.828125 -4.875 C 1.085938 -5.40625 1.453125 -5.828125 1.921875 -6.140625 C 2.398438 -6.453125 2.945312 -6.609375 3.5625 -6.609375 C 4.394531 -6.609375 5.050781 -6.507812 5.53125 -6.3125 L 5.53125 -4.75 L 5.046875 -4.75 L 4.84375 -5.84375 C 4.8125 -5.851562 4.734375 -5.867188 4.609375 -5.890625 C 4.492188 -5.921875 4.335938 -5.945312 4.140625 -5.96875 C 3.941406 -6 3.722656 -6.015625 3.484375 -6.015625 C 2.992188 -6.015625 2.597656 -5.914062 2.296875 -5.71875 C 2.003906 -5.519531 1.789062 -5.21875 1.65625 -4.8125 C 1.53125 -4.40625 1.46875 -3.863281 1.46875 -3.1875 C 1.46875 -2.351562 1.644531 -1.6875 2 -1.1875 C 2.363281 -0.695312 2.875 -0.453125 3.53125 -0.453125 C 3.820312 -0.453125 4.066406 -0.476562 4.265625 -0.53125 C 4.460938 -0.582031 4.613281 -0.640625 4.71875 -0.703125 C 4.832031 -0.765625 4.890625 -0.804688 4.890625 -0.828125 L 5.09375 -1.84375 Z M 5.578125 -1.84375 "/></g></g></g><g fill="#000000" fill-opacity="1"><g transform="translate(221.431002, 205.528523)"><g><path d="M -0.09375 -0.40625 L 0.546875 -0.578125 L 2.75 -6.546875 L 3.234375 -6.546875 L 5.53125 -0.578125 L 6.1875 -0.40625 L 6.1875 0 L 3.78125 0 L 3.78125 -0.40625 L 4.5 -0.578125 L 4.5 -0.75 L 4.0625 -1.859375 L 1.65625 -1.859375 L 1.265625 -0.75 L 1.265625 -0.578125 L 2.015625 -0.40625 L 2.015625 0 L -0.09375 0 Z M 3.859375 -2.4375 L 2.890625 -5.015625 L 2.84375 -5.125 L 2.828125 -5.171875 L 2.765625 -4.984375 L 1.859375 -2.4375 Z M 3.859375 -2.4375 "/></g></g></g><g fill="#000000" fill-opacity="1"><g transform="translate(235.138311, 205.528523)"><g><path d="M 0.546875 -0.4375 L 1.375 -0.59375 L 1.375 -5.875 L 0.546875 -6.0625 L 0.546875 -6.484375 L 3.515625 -6.484375 C 4.503906 -6.484375 5.265625 -6.21875 5.796875 -5.6875 C 6.328125 -5.15625 6.59375 -4.394531 6.59375 -3.40625 C 6.59375 -2.28125 6.296875 -1.429688 5.703125 -0.859375 C 5.117188 -0.285156 4.253906 0 3.109375 0 L 0.546875 0 Z M 3.1875 -0.515625 C 3.757812 -0.515625 4.21875 -0.613281 4.5625 -0.8125 C 4.914062 -1.007812 5.171875 -1.316406 5.328125 -1.734375 C 5.492188 -2.148438 5.578125 -2.695312 5.578125 -3.375 C 5.578125 -4.25 5.382812 -4.890625 5 -5.296875 C 4.613281 -5.703125 4.015625 -5.90625 3.203125 -5.90625 C 2.804688 -5.90625 2.488281 -5.882812 2.25 -5.84375 L 2.25 -0.625 C 2.34375 -0.59375 2.476562 -0.566406 2.65625 -0.546875 C 2.84375 -0.523438 3.019531 -0.515625 3.1875 -0.515625 Z M 3.1875 -0.515625 "/></g></g></g><g fill="#000000" fill-opacity="1"><g transform="translate(249.796372, 205.528523)"><g><path d="M 1.375 -0.59375 L 1.375 -5.890625 L 0.546875 -6.0625 L 0.546875 -6.484375 L 5.140625 -6.484375 L 5.140625 -4.84375 L 4.640625 -4.84375 L 4.4375 -5.9375 L 3.21875 -5.9375 L 2.25 -5.875 L 2.25 -3.578125 L 3.828125 -3.578125 L 3.96875 -4.171875 L 4.390625 -4.171875 L 4.390625 -2.46875 L 3.96875 -2.46875 L 3.828125 -3.0625 L 2.25 -3.0625 L 2.25 -0.671875 C 2.375 -0.640625 2.535156 -0.613281 2.734375 -0.59375 C 2.929688 -0.582031 3.125 -0.578125 3.3125 -0.578125 L 4.515625 -0.578125 L 4.734375 -1.640625 L 5.234375 -1.640625 L 5.234375 0 L 0.546875 0 L 0.546875 -0.4375 Z M 1.375 -0.59375 "/></g></g></g><g fill="#000000" fill-opacity="1"><g transform="translate(263.143398, 205.528523)"><g><path d="M 0.546875 0 L 0.546875 -0.421875 L 1.28125 -0.578125 L 1.28125 -5.921875 L 0.640625 -6.046875 L 0.640625 -6.484375 L 2.6875 -6.484375 L 4.234375 -1.90625 L 4.390625 -1.34375 L 4.53125 -1.90625 L 6.046875 -6.484375 L 8.265625 -6.484375 L 8.265625 -6.046875 L 7.4375 -5.90625 L 7.4375 -0.59375 L 8.265625 -0.4375 L 8.265625 0 L 5.75 0 L 5.75 -0.4375 L 6.578125 -0.59375 L 6.578125 -5.8125 L 6.421875 -5.8125 L 6.34375 -5.578125 L 4.453125 0 L 3.96875 0 L 2.015625 -5.8125 L 1.890625 -5.8125 L 1.890625 -0.578125 L 2.625 -0.421875 L 2.625 0 Z M 0.546875 0 "/></g></g></g><g fill="#000000" fill-opacity="1"><g transform="translate(279.622889, 205.528523)"><g><path d="M 1.796875 -0.4375 L 2.609375 -0.59375 L 2.609375 -2.328125 L 0.609375 -5.921875 L -0.015625 -6.078125 L -0.015625 -6.484375 L 2.40625 -6.484375 L 2.40625 -6.078125 L 1.65625 -5.921875 L 1.65625 -5.734375 L 3.109375 -3 L 3.25 -3 L 4.671875 -5.734375 L 4.671875 -5.921875 L 3.875 -6.078125 L 3.875 -6.484375 L 5.984375 -6.484375 L 5.984375 -6.078125 L 5.390625 -5.921875 L 3.484375 -2.4375 L 3.484375 -0.59375 L 4.3125 -0.4375 L 4.3125 0 L 1.796875 0 Z M 1.796875 -0.4375 "/></g></g></g></svg>